<svg width="237px" height="481px" viewBox="0 0 237 481" version="1.1" xmlns="http://www.w3.org/2000/svg" xmlns:xlink="http://www.w3.org/1999/xlink">
  <g stroke="none" stroke-width="1" fill="none" fill-rule="evenodd">
    <g id="ios" stroke="#000000">
      <path d="M33.79,0.5 L202.57,0.5 L202.57,0.5 C220.955559,0.5 235.86,15.4044407 235.86,33.79 L235.86,447.21 L235.86,447.21 C235.86,465.595559 220.955559,480.5 202.57,480.5 L33.79,480.5 L33.79,480.5 C15.4044407,480.5 0.5,465.595559 0.5,447.21 L0.5,33.79 L0.5,33.79 C0.5,15.4044407 15.4044407,0.5 33.79,0.5 Z M14.44,59 L14.44,422 L222.44,422 L222.44,59 L14.44,59 Z" fill="#FFF"></path>
      <circle id="Oval" cx="117.67" cy="447.79" r="16.39"></circle>
      <rect id="Rectangle-path" x="99.23" y="30.07" width="37.91" height="4.55" rx="1.81"></rect>
      <rect id="Rectangle-path" x="77.16" y="27.8" width="8.34" height="8.34" rx="3.32"></rect>
    </g>
  </g>
</svg>
